<?xml version="1.0" encoding="UTF-8"?>
<svg width="700px" height="426px" viewBox="0 0 700 426" version="1.1" xmlns="http://www.w3.org/2000/svg" xmlns:xlink="http://www.w3.org/1999/xlink">
    <!-- Generator: Sketch 63.1 (92452) - https://sketch.com -->
    <title>Izquierda-resutados</title>
    <desc>Created with Sketch.</desc>
    <g id="Stories-maquetados" stroke="none" stroke-width="1" fill="none" fill-rule="evenodd">
        <g id="Izquierda-resutados">
            <g id="Forma1-Copy-3" transform="translate(0.000000, 13.000000)" fill="#113255" fill-opacity="0.332085883">
                <path d="M695.750867,90.3889567 C704.132689,68.4121261 696.82923,41.2989749 678.139938,26.8482645 C665.369972,16.9719803 648.970451,12.5374448 632.825349,12.2040386 C606.076343,11.6514703 580.295997,21.4974448 555.080508,29.1541297 C529.288491,36.9880095 503.305077,44.3602499 476.875846,49.7576998 C431.881031,58.946188 387.096287,57.9506324 342.299872,48.2492117 C262.788103,31.0309967 184.230989,-11.7102783 100.753551,3.04586012 C98.244373,3.48884737 95.7398632,3.97846485 93.2516922,4.52637014 C92.4114093,4.71055957 91.5711264,4.89941203 90.7355117,5.09525902 C48.5673151,14.9062608 7.93496887,45.9410149 1.46712469,91.347208 C-3.51855382,126.338538 17.4044903,157.573802 46.1398312,175.295623 C112.732251,216.362873 187.837203,248.167026 266.403653,254.692928 C334.681307,260.363164 402.737219,246.313474 466.437665,222.261598 C518.87832,202.457736 569.283623,177.04892 619.156747,151.598137 C647.313226,137.226698 682.231649,123.104731 695.230358,91.6969348 C695.410085,91.2632736 695.585144,90.8249494 695.750867,90.3889567" id="Fill-1"></path>
            </g>
            <g id="estrellas-copy-4" transform="translate(13.000000, 0.000000)">
                <path d="M497.646063,260.912051 C496.120734,261.429847 496.768616,263.980564 498.31435,263.850477 C498.63319,263.822419 498.941827,263.671927 499.181594,263.452565 L499.349941,263.353087 C500.584488,262.376163 498.791334,260.524342 497.646063,260.912051" id="Fill-33" fill="#FFFFFF"></path>
                <path d="M573.363379,293.410502 C571.83805,293.928297 572.485933,296.479014 574.031667,296.348928 C574.350506,296.32087 574.659143,296.170377 574.898911,295.951016 L575.067258,295.851538 C576.301805,294.874613 574.508651,293.022793 573.363379,293.410502" id="Fill-33-Copy" fill="#FFFFFF"></path>
                <path d="M203.363379,203.410502 C201.83805,203.928297 202.485933,206.479014 204.031667,206.348928 C204.350506,206.32087 204.659143,206.170377 204.898911,205.951016 L205.067258,205.851538 C206.301805,204.874613 204.508651,203.022793 203.363379,203.410502" id="Fill-33-Copy" fill="#FFFFFF"></path>
                <path d="M294.866439,175.052568 C293.345456,175.570364 293.991492,178.12108 295.532822,177.990994 C295.850754,177.962936 296.158511,177.812444 296.397595,177.593082 L296.565463,177.493604 C297.796493,176.51668 296.008448,174.664859 294.866439,175.052568" id="Fill-33" fill="#FFFFFF"></path>
                <path d="M220.866439,75.0525682 C219.345456,75.5703637 219.991492,78.1210805 221.532822,77.9909939 C221.850754,77.9629361 222.158511,77.8124438 222.397595,77.5930821 L222.565463,77.4936042 C223.796493,76.5166797 222.008448,74.6648593 220.866439,75.0525682" id="Fill-33" fill="#FFFFFF"></path>
                <path d="M140.866439,85.0525682 C139.345456,85.5703637 139.991492,88.1210805 141.532822,87.9909939 C141.850754,87.9629361 142.158511,87.8124438 142.397595,87.5930821 L142.565463,87.4936042 C143.796493,86.5166797 142.008448,84.6648593 140.866439,85.0525682" id="Fill-33" fill="#FFFFFF"></path>
                <path d="M120.866439,105.052568 C119.345456,105.570364 119.991492,108.12108 121.532822,107.990994 C121.850754,107.962936 122.158511,107.812444 122.397595,107.593082 L122.565463,107.493604 C123.796493,106.51668 122.008448,104.664859 120.866439,105.052568" id="Fill-33" fill="#FFFFFF"></path>
                <path d="M130.866439,235.052568 C129.345456,235.570364 129.991492,238.12108 131.532822,237.990994 C131.850754,237.962936 132.158511,237.812444 132.397595,237.593082 L132.565463,237.493604 C133.796493,236.51668 132.008448,234.664859 130.866439,235.052568" id="Fill-33" fill="#FFFFFF"></path>
                <path d="M0.866438615,235.052568 C-0.654544337,235.570364 -0.0085081002,238.12108 1.53282245,237.990994 C1.85075367,237.962936 2.15851109,237.812444 2.39759537,237.593082 L2.56546305,237.493604 C3.79649273,236.51668 2.00844755,234.664859 0.866438615,235.052568" id="Fill-33" fill="#FFFFFF"></path>
                <path d="M30.8664386,125.052568 C29.3454557,125.570364 29.9914919,128.12108 31.5328224,127.990994 C31.8507537,127.962936 32.1585111,127.812444 32.3975954,127.593082 L32.565463,127.493604 C33.7964927,126.51668 32.0084476,124.664859 30.8664386,125.052568" id="Fill-33" fill="#FFFFFF"></path>
                <path d="M60.8664386,145.052568 C59.3454557,145.570364 59.9914919,148.12108 61.5328224,147.990994 C61.8507537,147.962936 62.1585111,147.812444 62.3975954,147.593082 L62.565463,147.493604 C63.7964927,146.51668 62.0084476,144.664859 60.8664386,145.052568" id="Fill-33" fill="#FFFFFF"></path>
                <path d="M133.363379,163.410502 C131.83805,163.928297 132.485933,166.479014 134.031667,166.348928 C134.350506,166.32087 134.659143,166.170377 134.898911,165.951016 L135.067258,165.851538 C136.301805,164.874613 134.508651,163.022793 133.363379,163.410502" id="Fill-33-Copy" fill="#FFFFFF"></path>
                <path d="M293.363379,103.410502 C291.83805,103.928297 292.485933,106.479014 294.031667,106.348928 C294.350506,106.32087 294.659143,106.170377 294.898911,105.951016 L295.067258,105.851538 C296.301805,104.874613 294.508651,103.022793 293.363379,103.410502" id="Fill-33-Copy" fill="#FFFFFF"></path>
                <path d="M313.363379,73.4105018 C311.83805,73.9282973 312.485933,76.4790141 314.031667,76.3489275 C314.350506,76.3208696 314.659143,76.1703773 314.898911,75.9510157 L315.067258,75.8515377 C316.301805,74.8746132 314.508651,73.0227929 313.363379,73.4105018" id="Fill-33-Copy" fill="#FFFFFF"></path>
                <path d="M623.178877,221.454782 C621.653549,221.972578 622.301431,224.523295 623.847165,224.393208 C624.166005,224.36515 624.474641,224.214658 624.714409,223.995296 L624.882756,223.895818 C626.117303,222.918894 624.324149,221.067073 623.178877,221.454782" id="Fill-33-Copy" fill="#FFFFFF"></path>
                <path d="M599.193637,413.336701 C597.668309,413.854497 598.316191,416.405213 599.861925,416.275127 C600.180765,416.247069 600.489402,416.096577 600.729169,415.877215 L600.897516,415.777737 C602.132063,414.800812 600.338909,412.948992 599.193637,413.336701" id="Fill-33-Copy" fill="#FFFFFF"></path>
                <path d="M462.662272,420.716775 C461.136943,421.23457 461.784826,423.785287 463.33056,423.655201 C463.649399,423.627143 463.958036,423.47665 464.197804,423.257289 L464.366151,423.157811 C465.600698,422.180886 463.807544,420.329066 462.662272,420.716775" id="Fill-33-Copy" fill="#FFFFFF"></path>
                <path d="M462.662272,420.716775 C461.136943,421.23457 461.784826,423.785287 463.33056,423.655201 C463.649399,423.627143 463.958036,423.47665 464.197804,423.257289 L464.366151,423.157811 C465.600698,422.180886 463.807544,420.329066 462.662272,420.716775" id="Fill-33-Copy" fill="#FFFFFF"></path>
                <path d="M465.931471,106.273063 C464.406142,106.790858 465.054024,109.341575 466.599759,109.211488 C466.918598,109.183431 467.227235,109.032938 467.467002,108.813577 L467.63535,108.714099 C468.869896,107.737174 467.076743,105.885354 465.931471,106.273063" id="Fill-41" fill="#FFFFFF"></path>
                <path d="M562.858707,118.598126 C561.333379,119.115922 561.981261,121.666638 563.526995,121.536552 C563.845835,121.508494 564.154471,121.358002 564.394239,121.13864 L564.562586,121.039162 C565.797133,120.062237 564.003979,118.210417 562.858707,118.598126" id="Fill-43" fill="#FFFFFF"></path>
                <path d="M353.699934,253.784839 C352.174605,254.302634 352.822487,256.853351 354.368221,256.725815 C354.687061,256.697757 354.995698,256.544714 355.235465,256.327903 L355.403812,256.228425 C356.638359,255.24895 354.845206,253.39713 353.699934,253.784839" id="Fill-45" fill="#FFFFFF"></path>
                <path d="M335.844916,149.206727 C334.319588,149.724523 334.96747,152.275239 336.513204,152.145153 C336.832044,152.117095 337.140681,151.966603 337.380448,151.747241 L337.548795,151.647763 C338.783342,150.670839 336.990188,148.819018 335.844916,149.206727" id="Fill-49" fill="#FFFFFF"></path>
                <path d="M126.868914,1.89758669 C125.343586,2.41538219 125.991468,4.96609894 127.537202,4.83601238 C127.856042,4.8079545 128.164678,4.65746221 128.404446,4.43810057 L128.572793,4.33862262 C129.80734,3.3616981 128.014186,1.50987774 126.868914,1.89758669" id="Fill-49-Copy-3" fill="#FFFFFF"></path>
                <path d="M425.689833,206.095363 C425.115922,205.975479 424.521605,205.937218 423.93749,205.929566 C423.735984,205.927015 423.531926,205.921914 423.33042,205.916813 C423.322768,205.406669 423.299811,204.896526 423.264101,204.388933 C423.197783,203.544646 423.085551,202.121346 422.095873,201.835666 C421.947931,201.792304 421.511759,203.386502 421.478599,203.547197 C421.356165,204.118557 421.320455,204.712874 421.310252,205.299539 C421.307701,205.501046 421.3026,205.702552 421.297499,205.90661 C420.815413,205.916813 420.330777,205.937218 419.851242,205.995885 C419.012056,206.095363 417.507134,206.133624 417.216352,207.136055 C417.17299,207.281446 418.764637,207.717619 418.927883,207.750778 C419.690547,207.914024 420.499124,207.924227 421.287296,207.93698 C421.297499,208.421616 421.320455,208.903702 421.379122,209.385787 C421.478599,210.222423 421.51431,211.727345 422.516741,212.018127 C422.662132,212.061489 423.098305,210.469842 423.134015,210.309147 C423.297261,209.543932 423.304913,208.737905 423.317666,207.949734 C423.83036,207.942082 424.337953,207.919125 424.848096,207.880865 C425.689833,207.817097 427.113133,207.702314 427.401364,206.712636 C427.442175,206.567245 425.847977,206.128522 425.689833,206.095363" id="Fill-57" fill="#D5D5FD"></path>
                <path d="M425.689833,206.095363 C425.115922,205.975479 424.521605,205.937218 423.93749,205.929566 C423.735984,205.927015 423.531926,205.921914 423.33042,205.916813 C423.322768,205.406669 423.299811,204.896526 423.264101,204.388933 C423.197783,203.544646 423.085551,202.121346 422.095873,201.835666 C421.947931,201.792304 421.511759,203.386502 421.478599,203.547197 C421.356165,204.118557 421.320455,204.712874 421.310252,205.299539 C421.307701,205.501046 421.3026,205.702552 421.297499,205.90661 C420.815413,205.916813 420.330777,205.937218 419.851242,205.995885 C419.012056,206.095363 417.507134,206.133624 417.216352,207.136055 C417.17299,207.281446 418.764637,207.717619 418.927883,207.750778 C419.690547,207.914024 420.499124,207.924227 421.287296,207.93698 C421.297499,208.421616 421.320455,208.903702 421.379122,209.385787 C421.478599,210.222423 421.51431,211.727345 422.516741,212.018127 C422.662132,212.061489 423.098305,210.469842 423.134015,210.309147 C423.297261,209.543932 423.304913,208.737905 423.317666,207.949734 C423.83036,207.942082 424.337953,207.919125 424.848096,207.880865 C425.689833,207.817097 427.113133,207.702314 427.401364,206.712636 C427.442175,206.567245 425.847977,206.128522 425.689833,206.095363" id="Fill-57" fill="#D5D5FD"></path>
                <path d="M440.37537,154.699181 C438.492487,155.336969 439.29224,158.478783 441.200312,158.31855 C441.593891,158.28399 441.974876,158.098623 442.270848,157.828427 L442.478658,157.705896 C444.002596,156.502582 441.789107,154.221625 440.37537,154.699181" id="Fill-49-Copy" fill="#FFFFFF"></path>
                <path d="M586.482192,40.6551562 C584.599309,41.2929444 585.399062,44.4347581 587.307134,44.2745256 C587.700713,44.2399657 588.081698,44.0545987 588.377669,43.7844027 L588.585479,43.6618719 C590.109418,42.4585573 587.895928,40.1776005 586.482192,40.6551562" id="Fill-49-Copy-2" fill="#FFFFFF"></path>
                <path d="M366.453517,128.800993 C364.928189,129.318789 365.576071,131.869505 367.121805,131.739419 C367.440645,131.711361 367.749282,131.560869 367.989049,131.341507 L368.157396,131.242029 C369.391943,130.265104 367.598789,128.413284 366.453517,128.800993" id="Fill-51" fill="#FFFFFF"></path>
                <path d="M425.689833,206.095363 C425.115922,205.975479 424.521605,205.937218 423.93749,205.929566 C423.735984,205.927015 423.531926,205.921914 423.33042,205.916813 C423.322768,205.406669 423.299811,204.896526 423.264101,204.388933 C423.197783,203.544646 423.085551,202.121346 422.095873,201.835666 C421.947931,201.792304 421.511759,203.386502 421.478599,203.547197 C421.356165,204.118557 421.320455,204.712874 421.310252,205.299539 C421.307701,205.501046 421.3026,205.702552 421.297499,205.90661 C420.815413,205.916813 420.330777,205.937218 419.851242,205.995885 C419.012056,206.095363 417.507134,206.133624 417.216352,207.136055 C417.17299,207.281446 418.764637,207.717619 418.927883,207.750778 C419.690547,207.914024 420.499124,207.924227 421.287296,207.93698 C421.297499,208.421616 421.320455,208.903702 421.379122,209.385787 C421.478599,210.222423 421.51431,211.727345 422.516741,212.018127 C422.662132,212.061489 423.098305,210.469842 423.134015,210.309147 C423.297261,209.543932 423.304913,208.737905 423.317666,207.949734 C423.83036,207.942082 424.337953,207.919125 424.848096,207.880865 C425.689833,207.817097 427.113133,207.702314 427.401364,206.712636 C427.442175,206.567245 425.847977,206.128522 425.689833,206.095363" id="Fill-57" fill="#D5D5FD"></path>
                <path d="M499.788004,155.552078 C499.214093,155.432195 498.619776,155.393934 498.035662,155.386282 C497.834155,155.383731 497.630098,155.37863 497.428591,155.373528 C497.420939,154.863385 497.397982,154.353241 497.362272,153.845649 C497.295954,153.001362 497.183722,151.578062 496.194044,151.292381 C496.046102,151.249019 495.60993,152.843217 495.576771,153.003912 C495.454336,153.575273 495.418626,154.16959 495.408423,154.756255 C495.405873,154.957761 495.400771,155.159268 495.39567,155.363325 C494.913584,155.373528 494.428948,155.393934 493.949413,155.4526 C493.110228,155.552078 491.605305,155.590339 491.314523,156.592771 C491.271161,156.738162 492.862808,157.174334 493.026054,157.207493 C493.788718,157.370739 494.597295,157.380942 495.385467,157.393696 C495.39567,157.878332 495.418626,158.360417 495.477293,158.842503 C495.576771,159.679138 495.612481,161.184061 496.614912,161.474843 C496.760303,161.518205 497.196476,159.926558 497.232186,159.765862 C497.395432,159.000647 497.403084,158.194621 497.415837,157.406449 C497.928531,157.398797 498.436124,157.375841 498.946267,157.33758 C499.788004,157.273812 501.211304,157.15903 501.499535,156.169352 C501.540346,156.023961 499.946148,155.585238 499.788004,155.552078" id="Fill-57" fill="#D5D5FD"></path>
                <path d="M250.710513,31.9358422 C250.136602,31.8159585 249.542285,31.7776977 248.958171,31.7700456 C248.756664,31.7674949 248.552607,31.7623934 248.3511,31.757292 C248.343448,31.2471486 248.320492,30.7370053 248.284782,30.2294126 C248.218463,29.3851254 248.106231,27.9618255 247.116553,27.6761452 C246.968612,27.632783 246.532439,29.226981 246.49928,29.3876761 C246.376845,29.9590367 246.341135,30.5533537 246.330933,31.1400185 C246.328382,31.3415252 246.32328,31.5430318 246.318179,31.7470891 C245.836093,31.757292 245.351457,31.7776977 244.871923,31.8363642 C244.032737,31.9358422 242.527814,31.9741029 242.237032,32.9765346 C242.19367,33.1219254 243.785317,33.558098 243.948563,33.5912573 C244.711227,33.7545032 245.519805,33.7647061 246.307976,33.7774597 C246.318179,34.2620958 246.341135,34.7441813 246.399802,35.2262668 C246.49928,36.0629019 246.53499,37.5678247 247.537422,37.8586065 C247.682812,37.9019686 248.118985,36.3103214 248.154695,36.1496262 C248.317941,35.3844112 248.325593,34.5783847 248.338347,33.7902132 C248.851041,33.7825611 249.358633,33.7596046 249.868777,33.7213439 C250.710513,33.657576 252.133813,33.5427937 252.422044,32.5531156 C252.462856,32.4077248 250.868658,31.9690015 250.710513,31.9358422" id="Fill-57-Copy-3" fill="#D5D5FD"></path>
                <path d="M199.049997,419.389717 C198.476085,419.269833 197.881768,419.231572 197.297654,419.22392 C197.096148,419.221369 196.89209,419.216268 196.690584,419.211167 C196.682931,418.701023 196.659975,418.19088 196.624265,417.683287 C196.557946,416.839 196.445715,415.4157 195.456037,415.13002 C195.308095,415.086658 194.871923,416.680856 194.838763,416.841551 C194.716329,417.412911 194.680619,418.007228 194.670416,418.593893 C194.667865,418.7954 194.662764,418.996906 194.657662,419.200964 C194.175577,419.211167 193.690941,419.231572 193.211406,419.290239 C192.37222,419.389717 190.867297,419.427977 190.576516,420.430409 C190.533153,420.5758 192.124801,421.011973 192.288046,421.045132 C193.050711,421.208378 193.859288,421.218581 194.647459,421.231334 C194.657662,421.71597 194.680619,422.198056 194.739285,422.680141 C194.838763,423.516776 194.874473,425.021699 195.876905,425.312481 C196.022296,425.355843 196.458468,423.764196 196.494178,423.603501 C196.657424,422.838286 196.665076,422.032259 196.67783,421.244088 C197.190524,421.236436 197.698117,421.213479 198.20826,421.175218 C199.049997,421.111451 200.473297,420.996668 200.761528,420.00699 C200.802339,419.861599 199.208141,419.422876 199.049997,419.389717" id="Fill-57-Copy-4" fill="#D5D5FD"></path>
                <path d="M588.34889,328.983813 C587.774978,328.863929 587.180661,328.825668 586.596547,328.818016 C586.395041,328.815465 586.190983,328.810364 585.989477,328.805262 C585.981824,328.295119 585.958868,327.784976 585.923158,327.277383 C585.856839,326.433096 585.744608,325.009796 584.75493,324.724116 C584.606988,324.680753 584.170816,326.274951 584.137656,326.435647 C584.015222,327.007007 583.979512,327.601324 583.969309,328.187989 C583.966758,328.389496 583.961657,328.591002 583.956555,328.79506 C583.47447,328.805262 582.989834,328.825668 582.510299,328.884335 C581.671113,328.983813 580.16619,329.022073 579.875409,330.024505 C579.832046,330.169896 581.423694,330.606068 581.586939,330.639228 C582.349604,330.802474 583.158181,330.812677 583.946352,330.82543 C583.956555,331.310066 583.979512,331.792152 584.038178,332.274237 C584.137656,333.110872 584.173366,334.615795 585.175798,334.906577 C585.321189,334.949939 585.757361,333.358292 585.793071,333.197597 C585.956317,332.432382 585.963969,331.626355 585.976723,330.838184 C586.489417,330.830532 586.99701,330.807575 587.507153,330.769314 C588.34889,330.705546 589.77219,330.590764 590.060421,329.601086 C590.101232,329.455695 588.507034,329.016972 588.34889,328.983813" id="Fill-57-Copy-5" fill="#D5D5FD"></path>
                <path d="M555.138557,203.522558 C554.564646,203.402674 553.970329,203.364414 553.386215,203.356761 C553.184708,203.354211 552.980651,203.349109 552.779144,203.344008 C552.771492,202.833865 552.748536,202.323721 552.712826,201.816129 C552.646507,200.971841 552.534276,199.548541 551.544598,199.262861 C551.396656,199.219499 550.960483,200.813697 550.927324,200.974392 C550.80489,201.545753 550.76918,202.14007 550.758977,202.726734 C550.756426,202.928241 550.751325,203.129748 550.746223,203.333805 C550.264138,203.344008 549.779502,203.364414 549.299967,203.42308 C548.460781,203.522558 546.955858,203.560819 546.665076,204.56325 C546.621714,204.708641 548.213361,205.144814 548.376607,205.177973 C549.139272,205.341219 549.947849,205.351422 550.73602,205.364176 C550.746223,205.848812 550.76918,206.330897 550.827846,206.812983 C550.927324,207.649618 550.963034,209.154541 551.965466,209.445322 C552.110857,209.488685 552.547029,207.897037 552.582739,207.736342 C552.745985,206.971127 552.753637,206.165101 552.766391,205.376929 C553.279085,205.369277 553.786678,205.346321 554.296821,205.30806 C555.138557,205.244292 556.561857,205.12951 556.850088,204.139831 C556.8909,203.994441 555.296702,203.555717 555.138557,203.522558" id="Fill-57-Copy-6" fill="#D5D5FD"></path>
                <path d="M604.954056,116.806691 C604.380144,116.686807 603.785827,116.648546 603.201713,116.640894 C603.000207,116.638344 602.796149,116.633242 602.594643,116.628141 C602.58699,116.117997 602.564034,115.607854 602.528324,115.100261 C602.462005,114.255974 602.349774,112.832674 601.360096,112.546994 C601.212154,112.503632 600.775982,114.09783 600.742822,114.258525 C600.620388,114.829885 600.584678,115.424202 600.574475,116.010867 C600.571924,116.212374 600.566823,116.41388 600.561721,116.617938 C600.079636,116.628141 599.595,116.648546 599.115465,116.707213 C598.276279,116.806691 596.771356,116.844952 596.480575,117.847383 C596.437212,117.992774 598.02886,118.428947 598.192106,118.462106 C598.95477,118.625352 599.763347,118.635555 600.551519,118.648308 C600.561721,119.132945 600.584678,119.61503 600.643344,120.097115 C600.742822,120.933751 600.778532,122.438673 601.780964,122.729455 C601.926355,122.772817 602.362527,121.18117 602.398237,121.020475 C602.561483,120.25526 602.569135,119.449233 602.581889,118.661062 C603.094583,118.65341 603.602176,118.630453 604.112319,118.592193 C604.954056,118.528425 606.377356,118.413642 606.665587,117.423964 C606.706398,117.278573 605.1122,116.83985 604.954056,116.806691" id="Fill-57-Copy-7" fill="#D5D5FD"></path>
                <path d="M593.883945,76.216285 C593.310034,76.0964013 592.715717,76.0581405 592.131603,76.0504884 C591.930096,76.0479377 591.726039,76.0428362 591.524532,76.0377348 C591.51688,75.5275914 591.493923,75.0174481 591.458213,74.5098555 C591.391895,73.6655682 591.279663,72.2422683 590.289985,71.956588 C590.142043,71.9132258 589.705871,73.5074238 589.672712,73.6681189 C589.550277,74.2394795 589.514567,74.8337965 589.504364,75.4204613 C589.501814,75.621968 589.496712,75.8234746 589.491611,76.0275319 C589.009525,76.0377348 588.524889,76.0581405 588.045354,76.116807 C587.206168,76.216285 585.701246,76.2545457 585.410464,77.2569774 C585.367102,77.4023683 586.958749,77.8385408 587.121995,77.8717001 C587.884659,78.034946 588.693236,78.0451489 589.481408,78.0579025 C589.491611,78.5425386 589.514567,79.0246241 589.573234,79.5067096 C589.672712,80.3433447 589.708422,81.8482675 590.710853,82.1390493 C590.856244,82.1824114 591.292417,80.5907642 591.328127,80.430069 C591.491373,79.664854 591.499025,78.8588275 591.511778,78.070656 C592.024472,78.0630039 592.532065,78.0400474 593.042208,78.0017867 C593.883945,77.9380188 595.307245,77.8232365 595.595476,76.8335584 C595.636287,76.6881676 594.042089,76.2494443 593.883945,76.216285" id="Fill-57-Copy-8" fill="#D5D5FD"></path>
                <path d="M464.732653,4.2605654 C464.158742,4.14068172 463.564425,4.10242096 462.980311,4.09476881 C462.778804,4.0922181 462.574747,4.08711666 462.37324,4.08201523 C462.365588,3.57187188 462.342632,3.06172853 462.306922,2.5541359 C462.240603,1.70984865 462.128372,0.286548705 461.138694,0.000868428564 C460.990752,-0.0424937562 460.554579,1.55170421 460.52142,1.71239937 C460.398986,2.28375992 460.363276,2.87807692 460.353073,3.46474178 C460.350522,3.6662484 460.345421,3.86775502 460.340319,4.07181236 C459.858234,4.08201523 459.373598,4.10242096 458.894063,4.16108745 C458.054877,4.2605654 456.549954,4.29882615 456.259172,5.30125784 C456.21581,5.44664869 457.807457,5.88282126 457.970703,5.91598058 C458.733368,6.07922645 459.541945,6.08942931 460.330116,6.1021829 C460.340319,6.58681908 460.363276,7.06890455 460.421942,7.55099001 C460.52142,8.38762511 460.55713,9.89254799 461.559562,10.1833297 C461.704953,10.2266919 462.141125,8.63504463 462.176835,8.47434948 C462.340081,7.70913445 462.347733,6.90310796 462.360487,6.11493648 C462.873181,6.10728433 463.380774,6.08432788 463.890917,6.04606713 C464.732653,5.98229921 466.155953,5.86751696 466.444184,4.87783886 C466.484996,4.732448 464.890798,4.29372472 464.732653,4.2605654" id="Fill-57-Copy-9" fill="#D5D5FD"></path>
                <path d="M516.39317,388.024403 C515.819259,387.904519 515.224942,387.866259 514.640828,387.858606 C514.439321,387.856056 514.235264,387.850954 514.033757,387.845853 C514.026105,387.33571 514.003148,386.825566 513.967438,386.317974 C513.90112,385.473686 513.788888,384.050386 512.79921,383.764706 C512.651269,383.721344 512.215096,385.315542 512.181937,385.476237 C512.059502,386.047598 512.023792,386.641915 512.013589,387.228579 C512.011039,387.430086 512.005937,387.631593 512.000836,387.83565 C511.51875,387.845853 511.034114,387.866259 510.554579,387.924925 C509.715394,388.024403 508.210471,388.062664 507.919689,389.065095 C507.876327,389.210486 509.467974,389.646659 509.63122,389.679818 C510.393884,389.843064 511.202461,389.853267 511.990633,389.866021 C512.000836,390.350657 512.023792,390.832742 512.082459,391.314828 C512.181937,392.151463 512.217647,393.656386 513.220078,393.947167 C513.365469,393.99053 513.801642,392.398882 513.837352,392.238187 C514.000598,391.472972 514.00825,390.666946 514.021003,389.878774 C514.533698,389.871122 515.04129,389.848166 515.551433,389.809905 C516.39317,389.746137 517.81647,389.631355 518.104701,388.641676 C518.145512,388.496286 516.551314,388.057562 516.39317,388.024403" id="Fill-57-Copy" fill="#D5D5FD"></path>
                <path d="M213.164113,127.308824 C212.590202,127.18894 211.995885,127.150679 211.411771,127.143027 C211.210264,127.140476 211.006207,127.135375 210.8047,127.130274 C210.797048,126.62013 210.774092,126.109987 210.738381,125.602394 C210.672063,124.758107 210.559831,123.334807 209.570153,123.049127 C209.422212,123.005765 208.986039,124.599963 208.95288,124.760658 C208.830445,125.332018 208.794735,125.926335 208.784532,126.513 C208.781982,126.714507 208.77688,126.916013 208.771779,127.120071 C208.289693,127.130274 207.805057,127.150679 207.325522,127.209346 C206.486337,127.308824 204.981414,127.347085 204.690632,128.349516 C204.64727,128.494907 206.238917,128.93108 206.402163,128.964239 C207.164827,129.127485 207.973405,129.137688 208.761576,129.150441 C208.771779,129.635077 208.794735,130.117163 208.853402,130.599248 C208.95288,131.435883 208.98859,132.940806 209.991021,133.231588 C210.136412,133.27495 210.572585,131.683303 210.608295,131.522608 C210.771541,130.757393 210.779193,129.951366 210.791947,129.163195 C211.304641,129.155543 211.812233,129.132586 212.322377,129.094326 C213.164113,129.030558 214.587413,128.915775 214.875644,127.926097 C214.916456,127.780706 213.322258,127.341983 213.164113,127.308824" id="Fill-59" fill="#D5D5FD"></path>
                <path d="M75.4743508,53.2605654 C74.9004396,53.1406817 74.3061226,53.102421 73.7220084,53.0947688 C73.5205018,53.0922181 73.3164445,53.0871167 73.1149378,53.0820152 C73.1072857,52.5718719 73.0843292,52.0617285 73.0486192,51.5541359 C72.9823006,50.7098487 72.870069,49.2865487 71.8803909,49.0008684 C71.7324494,48.9575062 71.2962768,50.5517042 71.2631175,50.7123994 C71.1406831,51.2837599 71.104973,51.8780769 71.0947702,52.4647418 C71.0922195,52.6662484 71.087118,52.867755 71.0820166,53.0718124 C70.5999311,53.0820152 70.1152949,53.102421 69.6357602,53.1610875 C68.7965744,53.2605654 67.2916515,53.2988262 67.0008698,54.3012578 C66.9575076,54.4466487 68.5491549,54.8828213 68.7124007,54.9159806 C69.475065,55.0792264 70.2836422,55.0894293 71.0718137,55.1021829 C71.0820166,55.5868191 71.104973,56.0689045 71.1636395,56.55099 C71.2631175,57.3876251 71.2988275,58.892548 72.3012592,59.1833297 C72.4466501,59.2266919 72.8828226,57.6350446 72.9185327,57.4743495 C73.0817785,56.7091345 73.0894307,55.903108 73.1021843,55.1149365 C73.6148783,55.1072843 74.122471,55.0843279 74.6326143,55.0460671 C75.4743508,54.9822992 76.8976508,54.867517 77.1858818,53.8778389 C77.2266932,53.732448 75.6324953,53.2937247 75.4743508,53.2605654" id="Fill-59-Copy" fill="#D5D5FD"></path>
                <path d="M45.4743508,207.260565 C44.9004396,207.140682 44.3061226,207.102421 43.7220084,207.094769 C43.5205018,207.092218 43.3164445,207.087117 43.1149378,207.082015 C43.1072857,206.571872 43.0843292,206.061729 43.0486192,205.554136 C42.9823006,204.709849 42.870069,203.286549 41.8803909,203.000868 C41.7324494,202.957506 41.2962768,204.551704 41.2631175,204.712399 C41.1406831,205.28376 41.104973,205.878077 41.0947702,206.464742 C41.0922195,206.666248 41.087118,206.867755 41.0820166,207.071812 C40.5999311,207.082015 40.1152949,207.102421 39.6357602,207.161087 C38.7965744,207.260565 37.2916515,207.298826 37.0008698,208.301258 C36.9575076,208.446649 38.5491549,208.882821 38.7124007,208.915981 C39.475065,209.079226 40.2836422,209.089429 41.0718137,209.102183 C41.0820166,209.586819 41.104973,210.068905 41.1636395,210.55099 C41.2631175,211.387625 41.2988275,212.892548 42.3012592,213.18333 C42.4466501,213.226692 42.8828226,211.635045 42.9185327,211.474349 C43.0817785,210.709134 43.0894307,209.903108 43.1021843,209.114936 C43.6148783,209.107284 44.122471,209.084328 44.6326143,209.046067 C45.4743508,208.982299 46.8976508,208.867517 47.1858818,207.877839 C47.2266932,207.732448 45.6324953,207.293725 45.4743508,207.260565" id="Fill-59-Copy-2" fill="#D5D5FD"></path>
                <path d="M107.474351,319.260565 C106.90044,319.140682 106.306123,319.102421 105.722008,319.094769 C105.520502,319.092218 105.316444,319.087117 105.114938,319.082015 C105.107286,318.571872 105.084329,318.061729 105.048619,317.554136 C104.982301,316.709849 104.870069,315.286549 103.880391,315.000868 C103.732449,314.957506 103.296277,316.551704 103.263117,316.712399 C103.140683,317.28376 103.104973,317.878077 103.09477,318.464742 C103.092219,318.666248 103.087118,318.867755 103.082017,319.071812 C102.599931,319.082015 102.115295,319.102421 101.63576,319.161087 C100.796574,319.260565 99.2916515,319.298826 99.0008698,320.301258 C98.9575076,320.446649 100.549155,320.882821 100.712401,320.915981 C101.475065,321.079226 102.283642,321.089429 103.071814,321.102183 C103.082017,321.586819 103.104973,322.068905 103.16364,322.55099 C103.263117,323.387625 103.298828,324.892548 104.301259,325.18333 C104.44665,325.226692 104.882823,323.635045 104.918533,323.474349 C105.081779,322.709134 105.089431,321.903108 105.102184,321.114936 C105.614878,321.107284 106.122471,321.084328 106.632614,321.046067 C107.474351,320.982299 108.897651,320.867517 109.185882,319.877839 C109.226693,319.732448 107.632495,319.293725 107.474351,319.260565" id="Fill-59-Copy-3" fill="#D5D5FD"></path>
                <path d="M207.474351,289.260565 C206.90044,289.140682 206.306123,289.102421 205.722008,289.094769 C205.520502,289.092218 205.316444,289.087117 205.114938,289.082015 C205.107286,288.571872 205.084329,288.061729 205.048619,287.554136 C204.982301,286.709849 204.870069,285.286549 203.880391,285.000868 C203.732449,284.957506 203.296277,286.551704 203.263117,286.712399 C203.140683,287.28376 203.104973,287.878077 203.09477,288.464742 C203.092219,288.666248 203.087118,288.867755 203.082017,289.071812 C202.599931,289.082015 202.115295,289.102421 201.63576,289.161087 C200.796574,289.260565 199.291651,289.298826 199.00087,290.301258 C198.957508,290.446649 200.549155,290.882821 200.712401,290.915981 C201.475065,291.079226 202.283642,291.089429 203.071814,291.102183 C203.082017,291.586819 203.104973,292.068905 203.16364,292.55099 C203.263117,293.387625 203.298828,294.892548 204.301259,295.18333 C204.44665,295.226692 204.882823,293.635045 204.918533,293.474349 C205.081779,292.709134 205.089431,291.903108 205.102184,291.114936 C205.614878,291.107284 206.122471,291.084328 206.632614,291.046067 C207.474351,290.982299 208.897651,290.867517 209.185882,289.877839 C209.226693,289.732448 207.632495,289.293725 207.474351,289.260565" id="Fill-59-Copy-4" fill="#D5D5FD"></path>
                <path d="M162.149778,249.263693 C161.575867,249.143809 160.98155,249.105549 160.397436,249.097897 C160.195929,249.095346 159.991872,249.090244 159.790365,249.085143 C159.782713,248.575 159.759756,248.064856 159.724046,247.557264 C159.657728,246.712976 159.545496,245.289676 158.555818,245.001445 C158.407877,244.960634 157.971704,246.554832 157.938545,246.715527 C157.81611,247.289438 157.7804,247.883755 157.770197,248.467869 C157.767647,248.669376 157.762545,248.873433 157.757444,249.07494 C157.275358,249.085143 156.790722,249.105549 156.311187,249.164215 C155.472002,249.263693 153.967079,249.304505 153.676297,250.301835 C153.632935,250.449776 155.224582,250.885949 155.387828,250.919108 C156.150492,251.082354 156.959069,251.092557 157.747241,251.105311 C157.757444,251.587396 157.7804,252.074583 157.839067,252.554118 C157.938545,253.390753 157.974255,254.895676 158.976686,255.186457 C159.122077,255.22982 159.55825,253.638172 159.59396,253.477477 C159.757206,252.714813 159.764858,251.906236 159.777612,251.120615 C160.290306,251.110412 160.797898,251.087456 161.308042,251.049195 C162.149778,250.985427 163.573078,250.873195 163.861309,249.880967 C163.90212,249.735576 162.307923,249.299403 162.149778,249.263693" id="Fill-61" fill="#D5D5FD"></path>
                <path d="M277.161596,269.75003 C276.587685,269.627595 275.993368,269.591885 275.409254,269.584233 C275.205197,269.581682 275.00369,269.576581 274.802183,269.57148 C274.794531,269.058786 274.771575,268.551193 274.735865,268.0436 C274.669546,267.199313 274.557315,265.776013 273.567637,265.487782 C273.419695,265.446971 272.980972,267.041169 272.950363,267.201864 C272.827929,267.775775 272.789668,268.367541 272.782016,268.954206 C272.779465,269.155713 272.774364,269.357219 272.769262,269.561277 C272.287177,269.57148 271.802541,269.591885 271.323006,269.650552 C270.48382,269.75003 268.978897,269.788291 268.688115,270.788171 C268.644753,270.936113 270.2364,271.372286 270.399646,271.405445 C271.162311,271.568691 271.970888,271.578894 272.759059,271.591647 C272.769262,272.073733 272.792219,272.558369 272.850885,273.040454 C272.950363,273.877089 272.986073,275.382012 273.988505,275.672794 C274.133896,275.716156 274.570068,274.124509 274.605778,273.963814 C274.766473,273.20115 274.776676,272.392572 274.78943,271.604401 C275.299573,271.596749 275.809717,271.573792 276.317309,271.535531 C277.161596,271.471764 278.584896,271.356981 278.873127,270.367303 C278.913939,270.221912 277.319741,269.78574 277.161596,269.75003" id="Fill-71" fill="#D5D5FD"></path>
            </g>
            <g id="chica-copy-2" transform="translate(276.000000, 38.000000)" fill-rule="nonzero">
                <path d="M129.744545,25.9877228 C134.634364,19.1218812 139.914545,22.1961386 147.434182,16.4165347 C152.899273,12.2150495 158.610909,19.1218812 163.870545,16.150099 C169.130182,13.1783168 177.841455,12.3585149 181.210909,16.969901 C184.580364,21.5812871 192.510909,22.1756436 199.064909,19.3268317 C208.187091,15.3917822 213.446727,18.4045545 218.028364,22.1141584 C232.410182,30.1482178 219.918545,55.1931683 209.810182,73.5772277 C197.482909,76.5285149 192.387636,61.4031683 179.649455,60.8907921 C169.602727,60.460396 165.267636,70.2775248 158.672545,61.6491089 C152.508909,53.4510891 154.173091,49.4955446 142.585455,50.5407921 C130.997818,51.5860396 122.923455,35.620396 129.744545,25.9877228 Z" id="Path" fill="#263238"></path>
                <path d="M145.338545,63.1657426 C145.338545,63.3706931 145.564545,63.760099 145.708364,64.0675248 L146.119273,65.0717822 C146.406909,65.7276238 146.735636,66.4039604 147.084909,67.1212871 C147.751348,68.4503101 148.49925,69.7371049 149.324364,70.9743564 C150.959809,73.4678184 152.853554,75.7828235 154.974364,77.8811881 L155.323636,78.250099 L155.323636,78.250099 C155.424103,78.3121246 155.535785,78.3539024 155.652364,78.3730693 C156.152647,78.5161139 156.676554,78.5579236 157.193273,78.4960396 C158.587611,78.3646234 159.964613,78.0898985 161.302364,77.6762376 C162.782329,77.2467976 164.236565,76.7335896 165.658,76.1391089 C167.116727,75.5857426 168.596,74.950396 169.993091,74.3355446 L171.657273,76.9794059 C168.965976,78.9966001 166.066303,80.7211426 163.007636,82.1236634 C161.353458,82.8786982 159.61557,83.4359344 157.830182,83.7837624 C156.748243,83.9575798 155.645393,83.9575798 154.563455,83.7837624 C153.847277,83.6904936 153.152392,83.4756076 152.508909,83.1484158 C152.170263,82.9631533 151.847315,82.7506678 151.543273,82.5130693 L151.358364,82.369604 L151.358364,82.2671287 L151.111818,82.0416832 C149.782885,80.9345132 148.539766,79.7287005 147.393091,78.4345545 C146.803316,77.7804615 146.247847,77.0963795 145.728909,76.3850495 C145.215273,75.7292079 144.660545,75.0323762 144.188,74.3355446 C143.187312,72.9210524 142.281341,71.4421921 141.476,69.9086139 C141.065091,69.129802 140.695273,68.330495 140.346,67.5311881 C140.161091,67.1212871 139.976182,66.7113861 139.832364,66.3014851 C139.688545,65.8915842 139.524182,65.4816832 139.359818,64.9488119 L145.338545,63.1657426 Z" id="Path" fill="#CE7A63"></path>
                <path d="M147.557455,67.6336634 L142.215636,73.7821782 C145.042505,76.1830955 147.642168,78.8381251 149.981818,81.7137624 L154.481273,76.9794059 C152.362032,73.7293465 150.049971,70.6085355 147.557455,67.6336634 L147.557455,67.6336634 Z" id="Path" fill="#407BFF"></path>
                <path d="M140.181636,57.0582178 C145.790545,58.5133663 149.632545,68.4739604 149.796909,68.8633663 L142.38,76.3440594 C142.38,76.3440594 133.175636,66.8548515 133.689273,63.5141584 C134.202909,60.1734653 136.504,56.0744554 140.181636,57.0582178 Z" id="Path" fill="#263238"></path>
                <path d="M170.527273,73.7821782 L175.663636,72.5934653 L173.773455,78.7419802 C173.773455,78.7419802 169.417818,78.4960396 168.041273,76.3645545 L168.596,75.339802 C168.972689,74.5576933 169.68174,73.9858241 170.527273,73.7821782 Z" id="Path" fill="#CE7A63"></path>
                <polygon id="Path" fill="#CE7A63" points="180.902727 74.7044554 178.642727 78.9674257 173.814545 78.7829703 175.725273 72.6754455"></polygon>
                <path d="M99.0907273,11.5387129 L99.8509091,4.98029703 L104.966727,8.83336634 C104.966727,8.83336634 103.836727,13.1783168 100.097455,12.6454455 L99.0907273,11.5387129 Z" id="Path" fill="#CE7A63"></path>
                <polygon id="Path" fill="#CE7A63" points="100.549455 1.63960396 105.624182 1.51663366 104.966727 8.83336634 99.8509091 4.98029703"></polygon>
                <polygon id="Path" fill="#CE7A63" points="50.6034545 188.49297 54.7536364 192.817426 67.7178182 185.357228 63.5676364 181.032772"></polygon>
                <polygon id="Path" fill="#CE7A63" points="9.75909091 131.619208 9.63581818 137.747228 23.8327273 139.981188 23.9354545 133.853168"></polygon>
                <path d="M11.1150909,138.095644 L13.1696364,131.537228 C13.2567738,131.305263 13.14906,131.045593 12.9230909,130.942871 L7.95109091,128.565446 C7.7145612,128.455575 7.44352732,128.445863 7.1997043,128.53852 C6.95588129,128.631177 6.76002317,128.818316 6.65672727,129.057327 C6.65672727,129.057327 6.65672727,129.057327 6.65672727,129.057327 C5.95818182,131.352772 5.75272727,132.500495 4.82818182,135.390297 C4.27345455,137.173366 2.77363636,141.005941 1.99290909,143.465347 C1.21218182,145.924752 3.59545455,146.76505 4.04745455,145.863267 C5.50740768,143.01596 7.68903845,140.599443 10.3754545,138.85396 C10.7011373,138.692261 10.9619761,138.424835 11.1150909,138.095644 Z" id="Path" fill="#263238"></path>
                <path d="M56.8287273,192.42802 L54.24,185.644158 C54.153883,185.384373 53.895881,185.221373 53.6236364,185.254752 L47.686,185.808119 C47.1915113,185.851557 46.8196604,186.27678 46.8436364,186.771386 L46.8436364,187.037822 C47.7887273,189.394752 48.364,190.501485 49.494,193.493762 C50.1925455,195.338317 52.2676364,201.404851 53.2332727,203.946238 C54.1989091,206.487624 56.8903636,205.995743 56.726,204.88901 C56.0069091,199.929208 55.9452727,195.461287 56.726,193.534752 C56.8936497,193.190475 56.9301581,192.797151 56.8287273,192.42802 Z" id="Path" fill="#263238"></path>
                <polygon id="Path" fill="#000000" opacity="0.2" points="67.7178182 185.357228 60.8556364 189.292277 56.8492727 184.885842 63.5470909 181.032772"></polygon>
                <polygon id="Path" fill="#000000" opacity="0.2" points="23.9354545 133.853168 23.8121818 139.981188 16.5185455 138.81297 16.6212727 132.705446"></polygon>
                <path d="M145.153636,60.7063366 C145.153636,60.7063366 146.920545,63.2477228 121.053818,88.9280198 L100.857636,74.3560396 C107.021273,66.4039604 110.801636,61.3416832 119.081455,41.5639604 C122.332165,43.0312291 125.476392,44.7227545 128.491273,46.6262376 C131.685901,48.6479628 134.746662,50.8728662 137.654545,53.2871287 C141.332182,56.5458416 145.153636,60.7063366 145.153636,60.7063366 Z" id="Path" fill="#263238"></path>
                <path d="M136.873818,37.0960396 C135.312364,40.4572277 131.963455,46.2573267 128.491273,46.7287129 C128.491273,46.7287129 127.114727,50.2948515 132.600364,54.2708911 C138.661273,58.6158416 137.654545,53.2871287 137.654545,53.2871287 C134.922,50.1308911 136.791636,47.7534653 139.010545,45.8474257 L136.873818,37.0960396 Z" id="Path" fill="#CE7A63"></path>
                <path d="M137.654545,40.7031683 L138.928364,45.949901 C138.407314,46.3841904 137.9197,46.8569062 137.469636,47.3640594 C136.360182,46.2778218 135.271273,43.7774257 136.093091,42.4042574 C136.50735,41.7485963 137.03622,41.1724315 137.654545,40.7031683 Z" id="Path" fill="#000000" opacity="0.2"></path>
                <path d="M137.654545,30.1687129 C135.435636,35.8253465 134.346727,38.1822772 135.846545,42.3017822 C136.650286,45.0653286 138.919671,47.1592199 141.74419,47.7433542 C144.568709,48.3274886 147.485524,47.3061474 149.324364,45.0891089 C152.817091,40.7031683 155.857818,32.1977228 151.378909,27.4838614 C149.904188,25.8496907 147.83321,24.8749674 145.631133,24.7786221 C143.429057,24.6822767 141.280484,25.472386 139.668,26.9714851 C138.761837,27.8706127 138.073218,28.9640922 137.654545,30.1687129 L137.654545,30.1687129 Z" id="Path" fill="#CE7A63"></path>
                <path d="M134.634364,34.3087129 C134.100182,38.8176238 143.51,28.7955446 149.735273,31.8083168 C154.358,34.0422772 160.788727,34.6161386 161.918727,30.8040594 C163.048727,26.9919802 152.776,20.5565347 144.023636,22.4625743 C135.784909,24.2251485 135.312364,28.3856436 134.634364,34.3087129 Z" id="Path" fill="#263238"></path>
                <path d="M134.428909,34.8415842 C134.060525,35.9552377 134.141592,37.1682497 134.654909,38.2232673 C135.353455,39.6169307 136.853273,39.2685149 137.613455,37.9978218 C138.373636,36.7271287 138.784545,34.780099 137.613455,33.7963366 C136.742904,33.1345417 135.505099,33.2697354 134.798727,34.1037624 C134.626599,34.322158 134.500779,34.5731824 134.428909,34.8415842 Z" id="Path" fill="#CE7A63"></path>
                <path d="M121.053818,88.9280198 C121.053818,88.9280198 114.890182,143.239901 103.651818,158.119307 C91.8792727,173.634059 64.3689091,189.251287 64.3689091,189.251287 L57.3629091,182.569901 C57.3629091,182.569901 82.6749091,162.976634 89.0645455,149.777822 C97.858,131.332277 103.610727,76.4670297 103.610727,76.4670297 L121.053818,88.9280198 Z" id="Path" fill="#407BFF"></path>
                <polygon id="Path" fill="#263238" points="56.726 181.975545 64.5127273 190.071089 68.8272727 188.083069 60.6296364 178.716832"></polygon>
                <path d="M108.706,89.2764356 C108.377273,95.7118812 104.165455,104.155842 99.1112727,109.382079 C99.9330909,104.299307 100.672727,99.380495 101.289091,95.0355446 C103.445419,92.7419973 105.947937,90.798833 108.706,89.2764356 L108.706,89.2764356 Z" id="Path" fill="#000000" opacity="0.2"></path>
                <path d="M115.712,85.0749505 C115.712,85.0749505 91.2834545,114.772277 74.3745455,131.762673 C60.7323636,145.514851 18.3676364,140.493564 18.3676364,140.493564 L18.9223636,132.111089 C18.9223636,132.111089 50.3569091,132.254554 59.7256364,122.970297 C89.7014545,93.1909901 87.8523636,78.7214851 100.816545,74.3970297 L115.712,85.0749505 Z" id="Path" fill="#407BFF"></path>
                <polygon id="Path" fill="#263238" points="18.8196364 130.676436 18.0594545 142.276634 23.4629091 144.162178 24.0381818 131.065842"></polygon>
                <path d="M101.412364,72.9623762 L99.1729091,74.089604 C99.0085455,74.1920792 99.1729091,74.4585149 99.2961818,74.6224752 L120.499091,89.9322772 C120.642652,90.0489372 120.848621,90.0489372 120.992182,89.9322772 L122.471455,88.2721782 C122.471455,88.169703 122.471455,87.9442574 122.307091,87.8007921 L101.761636,73.0443564 C101.662664,72.9677432 101.535198,72.9378247 101.412364,72.9623762 L101.412364,72.9623762 Z" id="Path" fill="#407BFF"></path>
                <path d="M101.412364,72.9623762 L99.1729091,74.089604 C99.0085455,74.1920792 99.1729091,74.4585149 99.2961818,74.6224752 L120.499091,89.9322772 C120.642652,90.0489372 120.848621,90.0489372 120.992182,89.9322772 L122.471455,88.2721782 C122.471455,88.169703 122.471455,87.9442574 122.307091,87.8007921 L101.761636,73.0443564 C101.662664,72.9677432 101.535198,72.9378247 101.412364,72.9623762 L101.412364,72.9623762 Z" id="Path" fill="#FFFFFF" opacity="0.4"></path>
                <path d="M102.501273,77.2253465 L101.946545,76.8359406 C101.843818,76.8359406 101.802727,76.6309901 101.843818,76.569505 L103.898364,74.52 C103.898364,74.52 104.083273,74.52 104.206545,74.52 L104.740727,74.9094059 C104.740727,74.9094059 104.884545,75.0938614 104.740727,75.1758416 L102.686182,77.2253465 C102.686182,77.2253465 102.604,77.3073267 102.501273,77.2253465 Z" id="Path" fill="#407BFF"></path>
                <path d="M118.814364,88.989505 L118.259636,88.600099 C118.259636,88.600099 118.115818,88.4156436 118.259636,88.3336634 L120.314182,86.1816832 C120.314182,86.1816832 120.499091,86.1816832 120.622364,86.1816832 L121.156545,86.5710891 C121.279818,86.5710891 121.320909,86.7760396 121.259273,86.8375248 L119.204727,88.989505 C119.094521,89.0910652 118.92457,89.0910652 118.814364,88.989505 L118.814364,88.989505 Z" id="Path" fill="#407BFF"></path>
                <path d="M110.657818,83.1074257 L110.103091,82.7180198 C110.103091,82.7180198 109.959273,82.5130693 110.103091,82.4515842 L112.157636,80.4020792 C112.244435,80.3213762 112.379019,80.3213762 112.465818,80.4020792 L113,80.7914851 C113.123273,80.7914851 113.164364,80.9759406 113,81.0579208 L110.945455,83.1074257 C110.85951,83.1689985 110.743763,83.1689985 110.657818,83.1074257 L110.657818,83.1074257 Z" id="Path" fill="#407BFF"></path>
                <path d="M145.256364,35.5794059 C145.030364,36.030297 145.112545,36.5221782 145.400182,36.6451485 C145.687818,36.7681188 146.098727,36.5221782 146.324727,36.0917822 C146.550727,35.6613861 146.448,35.169505 146.160364,35.0260396 C145.872727,34.8825743 145.461818,35.1490099 145.256364,35.5794059 Z" id="Path" fill="#263238"></path>
                <path d="M150.331091,37.9568317 C150.099122,38.2895104 150.161663,38.7440503 150.474909,39.0020792 C150.762545,39.1455446 151.173455,38.899604 151.399455,38.4487129 C151.625455,37.9978218 151.522727,37.5264356 151.235091,37.3829703 C150.947455,37.239505 150.536545,37.5059406 150.331091,37.9568317 Z" id="Path" fill="#263238"></path>
                <path d="M151.111818,37.3419802 L152.344545,37.5264356 C152.344545,37.5264356 151.378909,38.1207921 151.111818,37.3419802 Z" id="Path" fill="#263238"></path>
                <path d="M148.625818,38.100297 C148.54934,39.302404 148.639215,40.5092906 148.892909,41.6869307 C148.275416,41.818813 147.631427,41.6601002 147.146545,41.2565347 L148.625818,38.100297 Z" id="Path" fill="#BA4D3C"></path>
                <path d="M144.763273,42.2812871 C144.816742,42.326051 144.894713,42.326051 144.948182,42.2812871 C144.996258,42.221387 144.996258,42.1362367 144.948182,42.0763366 C143.810701,41.5732728 142.979786,40.5618915 142.708727,39.350495 C142.708727,39.350495 142.708727,39.2070297 142.544364,39.2275248 L142.544364,39.2275248 C142.461692,39.2379122 142.399892,39.3083675 142.40054,39.3914851 C142.672424,40.7133505 143.579072,41.8170537 144.824909,42.3427723 L144.763273,42.2812871 Z" id="Path" fill="#263238"></path>
                <path d="M145.133091,33.6938614 C145.200027,33.714409 145.271609,33.714409 145.338545,33.6938614 C146.00082,33.4004628 146.763458,33.4385012 147.393091,33.7963366 C147.513186,33.8922536 147.683905,33.8922536 147.804,33.7963366 C147.908636,33.6796376 147.908636,33.5031347 147.804,33.3864356 C146.993783,32.9205633 146.009631,32.8672907 145.153636,33.2429703 C145.003945,33.3087016 144.931798,33.4796311 144.989273,33.6323762 L144.989273,33.6323762 C145.031552,33.6641197 145.080889,33.6852122 145.133091,33.6938614 Z" id="Path" fill="#263238"></path>
                <path d="M153.762182,36.7066337 L153.885455,36.7066337 C154.048159,36.6754817 154.15706,36.5215838 154.132,36.3582178 C154.007458,35.4313144 153.44096,34.6218358 152.611636,34.1857426 C152.463905,34.1255266 152.29453,34.187775 152.221273,34.3292079 C152.187789,34.4022287 152.186509,34.4859048 152.217746,34.5599101 C152.248983,34.6339154 152.309877,34.6914775 152.385636,34.7186139 C153.03469,35.0770391 153.4707,35.725635 153.556727,36.4606931 C153.573642,36.5745833 153.652933,36.669499 153.762182,36.7066337 L153.762182,36.7066337 Z" id="Path" fill="#263238"></path>
                <path d="M113.801273,46.3393069 L113.102727,45.970396 L112.486364,45.6219802 L111.335818,44.8841584 C110.616727,44.3717822 109.877091,43.8594059 109.281273,43.3060396 C107.909396,42.1968117 106.612226,40.9986753 105.398182,39.7194059 C104.184651,38.4350662 103.065451,37.0651838 102.049273,35.620396 C101.515091,34.9235644 101.063091,34.1857426 100.57,33.4479208 C100.076909,32.710099 99.6865455,31.9722772 99.2550909,31.1524752 C97.5055625,27.8834622 96.701743,24.193545 96.9334545,20.4950495 C97.0533839,18.7390687 97.3283896,16.9970672 97.7552727,15.2893069 C97.995039,14.4334544 98.2831354,13.5918135 98.6181818,12.7684158 C98.8970627,11.9037235 99.2404465,11.0610717 99.6454545,10.2475248 L102.521818,11.4362376 C102.157245,12.9045833 101.903144,14.398046 101.761636,15.9041584 C101.617875,17.3968605 101.617875,18.8998722 101.761636,20.3925743 C101.875145,23.1999784 102.709963,25.931183 104.186,28.3241584 C105.833834,30.8451373 107.741221,33.1874587 109.877091,35.3129703 C110.941466,36.3551745 112.066573,37.3338066 113.246545,38.2437624 C113.821818,38.7151485 114.438182,39.1455446 115.034,39.5759406 L115.938,40.170297 L116.39,40.4367327 L116.739273,40.6621782 L113.801273,46.3393069 Z" id="Path" fill="#CE7A63"></path>
                <path d="M105.768,30.1687129 L100.035818,33.7553465 C102.609817,37.9159194 105.811418,41.6557826 109.527818,44.8431683 L114.582,38.4077228 C111.396785,35.9370029 108.446336,33.1790295 105.768,30.1687129 Z" id="Path" fill="#407BFF"></path>
                <path d="M124.135636,44.699703 C123.827455,42.0968317 113.493091,36.9730693 113.493091,36.9730693 L107.863636,46.0933663 C110.138111,49.1323213 112.773449,51.8850681 115.712,54.2913861 C118.608909,56.3408911 124.464364,47.6509901 124.135636,44.699703 Z" id="Path" fill="#263238"></path>
                <path d="M9.55363636,141.210891 C9.6842927,141.362085 9.86815848,141.45746 10.0672727,141.477327 C10.2495137,141.520539 10.4405623,141.457013 10.5603636,141.313366 C11.074,140.739505 10.5603636,138.60802 10.4165455,138.362079 C10.4064164,138.302266 10.3540766,138.258757 10.2932727,138.259592 C10.2932727,138.259592 10.2932727,138.259592 10.1494545,138.259592 C9.73854545,138.956436 9.08109091,140.309109 9.40981818,140.944455 C9.43878944,141.042225 9.48775859,141.132945 9.55363636,141.210891 L9.55363636,141.210891 Z M10.2727273,138.792475 C10.4781818,139.612277 10.6425455,140.84198 10.3754545,141.128911 C10.3118867,141.165522 10.2335679,141.165522 10.17,141.128911 C9.97417165,141.117011 9.80064104,140.998985 9.718,140.821485 C9.53309091,140.432079 9.718,139.653267 10.2727273,138.77198 L10.2727273,138.792475 Z" id="Shape" fill="#407BFF"></path>
                <path d="M11.1150909,140.083663 C11.3097973,140.337574 11.5850009,140.518185 11.8958182,140.59604 C12.1388242,140.620035 12.3672045,140.476592 12.4505455,140.247624 C12.5317619,140.04359 12.5317619,139.816311 12.4505455,139.612277 C12.0807273,138.792475 10.396,138.259604 10.396,138.239109 C10.3500247,138.21975 10.2981571,138.21975 10.2521818,138.239109 C10.2336787,138.278021 10.2336787,138.323167 10.2521818,138.362079 C10.4122462,138.991209 10.7065883,139.578448 11.1150909,140.083663 L11.1150909,140.083663 Z M11.9985455,139.468812 C12.0716941,139.549098 12.1338702,139.638688 12.1834545,139.735248 C12.2246508,139.868791 12.2246508,140.011605 12.1834545,140.145149 C12.1834545,140.309109 12.0190909,140.329604 11.9369091,140.309109 C11.5054545,140.309109 10.7658182,139.304851 10.4987273,138.60802 C11.0493584,138.796393 11.5585419,139.088629 11.9985455,139.468812 L11.9985455,139.468812 Z" id="Shape" fill="#407BFF"></path>
                <path d="M56.8287273,195.871188 C56.9735654,196.347989 57.2601513,196.769666 57.6505455,197.080396 C57.9158074,197.212125 58.2276471,197.212125 58.4929091,197.080396 C58.6397049,197.034118 58.7546987,196.919406 58.8010909,196.77297 C58.986,195.994158 57.0547273,194.067624 56.7465455,193.698713 C56.699751,193.656961 56.6289763,193.656961 56.5821818,193.698713 C56.5564912,193.743101 56.5564912,193.79779 56.5821818,193.842178 C56.5842582,194.525823 56.6670095,195.206847 56.8287273,195.871188 Z M58.4312727,196.506535 C58.4500955,196.601257 58.4500955,196.698743 58.4312727,196.793465 C58.393132,196.815432 58.3461407,196.815432 58.308,196.793465 C58.1391894,196.874434 57.9426288,196.874434 57.7738182,196.793465 C57.1397621,196.113717 56.7558402,195.239366 56.6849091,194.313564 C57.3712373,194.955582 57.9596025,195.694413 58.4312727,196.506535 Z" id="Shape" fill="#407BFF"></path>
                <path d="M56.3767273,193.965149 L56.3767273,193.965149 C56.9725455,194.600495 58.8010909,195.686733 59.4174545,195.358812 C59.5407273,195.358812 59.6845455,195.112871 59.6023636,194.764455 C59.2530909,193.350297 56.5821818,193.698713 56.4589091,193.719208 C56.4207684,193.697241 56.3737771,193.697241 56.3356364,193.719208 L56.3767273,193.965149 Z M59.3147273,194.78495 L59.3147273,194.78495 C59.3147273,194.928416 59.3147273,195.010396 59.3147273,195.051386 C59.3147273,195.092376 57.5683636,194.53901 56.8287273,193.924158 C57.5478182,193.924158 59.0476364,193.924158 59.3558182,194.682475 L59.3147273,194.78495 Z" id="Shape" fill="#407BFF"></path>
                <path d="M146.016545,34.9850495 L147.249273,35.19 C147.249273,35.19 146.304182,35.7638614 146.016545,34.9850495 Z" id="Path" fill="#263238"></path>
            </g>
            <g id="cohete-copy-2" transform="translate(387.000000, 199.000000)" fill-rule="nonzero">
                <path d="M29.4115068,66.8253521 L43.0027397,80.4112676 L81.0345205,44.5830986 C67.9364384,39.5746479 42.4306849,53.771831 29.4115068,66.8253521 Z" id="Path" fill="#263238"></path>
                <path d="M76.7934247,114.149296 L63.1232877,100.56338 L98.9654795,62.5267606 C104.035068,75.6197183 89.8126027,101.135211 76.7934247,114.149296 Z" id="Path" fill="#263238"></path>
                <path d="M128.791233,28.571831 L143.605479,0 L115.042192,14.828169 C105.865859,19.5523568 97.3885534,25.5246276 89.8520548,32.5746479 L41.1484932,78.5183099 L65.0958904,102.535211 L110.939178,53.8507042 C118.035228,46.2938891 124.043648,37.7858453 128.791233,28.571831 L128.791233,28.571831 Z" id="Path" fill="#407BFF"></path>
                <path d="M128.791233,28.571831 L143.605479,0 L115.042192,14.828169 C105.865859,19.5523568 97.3885534,25.5246276 89.8520548,32.5746479 L41.1484932,78.5183099 L65.0958904,102.535211 L110.939178,53.8507042 C118.035228,46.2938891 124.043648,37.7858453 128.791233,28.571831 L128.791233,28.571831 Z" id="Path" fill="#FFFFFF" opacity="0.6"></path>
                <ellipse id="Oval" fill="#FFFFFF" cx="98.3539726" cy="45.2338028" rx="10.0208219" ry="10.0169014"></ellipse>
                <ellipse id="Oval" fill="#407BFF" cx="98.3539726" cy="45.2338028" rx="6.43068493" ry="6.42816901"></ellipse>
                <polygon id="Path" fill="#407BFF" opacity="0.3" points="73.1638356 93.8394366 49.7293151 70.4140845 68.9227397 52.371831 91.2328767 74.6732394"></polygon>
                <path d="M34.7178082,88.2591549 C17.1813699,89.6788732 11.3621918,100.898592 9.36986301,115.864789 C8.36383562,123.476056 7.91013699,131.185915 1.47945205,135.583099 C0.673047423,136.113086 0.318704335,137.115239 0.612839698,138.034053 C0.906975061,138.952866 1.77751897,139.563209 2.74191781,139.526761 C26.2947945,138.797183 37.2821918,127.261972 38.6630137,122.450704 C38.2950314,124.97093 37.6329859,127.439394 36.690411,129.805634 C36.3536508,130.663824 36.6018795,131.641114 37.3074054,132.234773 C38.0129313,132.828433 39.0186159,132.90624 39.8071233,132.428169 C46.4153425,128.287324 54.700274,120.597183 55.2526027,108.312676 C50.4789041,101.430986 34.7178082,88.2591549 34.7178082,88.2591549 Z" id="Path" fill="#407BFF"></path>
                <path d="M34.7178082,88.2591549 C17.1813699,89.6788732 11.3621918,100.898592 9.36986301,115.864789 C8.36383562,123.476056 7.91013699,131.185915 1.47945205,135.583099 C0.673047423,136.113086 0.318704335,137.115239 0.612839698,138.034053 C0.906975061,138.952866 1.77751897,139.563209 2.74191781,139.526761 C26.2947945,138.797183 37.2821918,127.261972 38.6630137,122.450704 C38.2950314,124.97093 37.6329859,127.439394 36.690411,129.805634 C36.3536508,130.663824 36.6018795,131.641114 37.3074054,132.234773 C38.0129313,132.828433 39.0186159,132.90624 39.8071233,132.428169 C46.4153425,128.287324 54.700274,120.597183 55.2526027,108.312676 C50.4789041,101.430986 34.7178082,88.2591549 34.7178082,88.2591549 Z" id="Path" fill="#FFFFFF" opacity="0.2"></path>
                <polygon id="Path" fill="#407BFF" points="58.0536986 113.616901 29.9441096 85.5183099 44.9161644 82.284507 61.2887671 98.6507042"></polygon>
            </g>
            <g id="Group-7-Copy" transform="translate(522.000000, 136.000000)" fill="#407BFF" fill-rule="nonzero" opacity="0.2">
                <circle id="Oval" cx="14.7322888" cy="14.7322888" r="14.7322888"></circle>
                <path d="M24.0388283,3.32901907 C17.2917741,1.24780327 10.0175296,4.25268277 6.70625559,10.4888406 C3.3949816,16.7249984 4.98030307,24.4341287 10.4836512,28.8576294 C11.8609528,29.2758997 13.2928806,29.4866596 14.7322888,29.4830675 C20.9763715,29.5056061 26.5547367,25.584712 28.6480475,19.7019294 C30.7413583,13.8191469 28.8936755,7.25579118 24.0388283,3.32901907 L24.0388283,3.32901907 Z" id="Path"></path>
            </g>
            <g id="Group-8-Copy-2" transform="translate(330.000000, 257.000000)" fill-rule="nonzero">
                <circle id="Oval" fill="#407BFF" cx="10.5756131" cy="10.5756131" r="10.5756131"></circle>
                <path d="M4.98228883,8.76600817 C6.50015534,4.07190646 11.0679087,1.05601805 15.9809264,1.50408719 C15.3019683,1.09038275 14.5761464,0.759029262 13.8188011,0.517029973 C8.3430621,-1.02940571 2.62524257,2.0338033 0.879160938,7.44918692 C-0.866920697,12.8645705 1.98467326,18.6908147 7.33242507,20.6341962 C8.09466534,20.8824744 8.88346329,21.040234 9.68256131,21.1042234 C5.42564087,18.5947036 3.4740505,13.4717789 4.98228883,8.76600817 L4.98228883,8.76600817 Z" id="Path" fill="#FFFFFF" opacity="0.2"></path>
            </g>
        </g>
    </g>
</svg>